<svg xmlns="http://www.w3.org/2000/svg" width="1584" height="396" viewBox="0 0 1584 396">
  <defs>
    <filter id="grain" x="0" y="0" width="100%" height="100%">
      <feTurbulence type="fractalNoise" baseFrequency="0.95" numOctaves="2" seed="17" stitchTiles="stitch"/>
      <feColorMatrix type="matrix" values="0 0 0 0 0.5  0 0 0 0 0.5  0 0 0 0 0.5  0 0 0 1 0"/>
    </filter>
    <radialGradient id="bloom" cx="675.2" cy="241.8" r="241.1" gradientUnits="userSpaceOnUse">
      <stop offset="0" stop-color="#00D7CA" stop-opacity=".085"/>
      <stop offset="1" stop-color="#00D7CA" stop-opacity="0"/>
    </radialGradient>
  </defs>
  <rect width="1584" height="396" fill="#0C0C0B"/>
  <rect width="1584" height="396" fill="url(#bloom)"/>
  <rect x="565.57" y="317.39" width="22.04" height="3.60" rx="1.80" fill="#F9F5EF" opacity="0.915"/>
  <rect x="589.90" y="317.39" width="23.92" height="3.60" rx="1.80" fill="#F9F5EF"/>
  <rect x="536.63" y="323.86" width="21.58" height="3.60" rx="1.80" fill="#F9F5EF" opacity="0.800"/>
  <rect x="564.08" y="323.86" width="23.93" height="3.60" rx="1.80" fill="#F9F5EF" opacity="0.896"/>
  <rect x="591.23" y="323.86" width="26.28" height="3.60" rx="1.80" fill="#F9F5EF" opacity="0.993"/>
  <rect x="564.26" y="330.34" width="23.47" height="3.60" rx="1.80" fill="#F9F5EF" opacity="0.878"/>
  <rect x="591.43" y="330.34" width="25.82" height="3.60" rx="1.80" fill="#F9F5EF" opacity="0.974"/>
  <rect x="565.12" y="336.81" width="20.78" height="3.60" rx="1.80" fill="#F9F5EF" opacity="0.859"/>
  <rect x="590.28" y="336.81" width="22.73" height="3.60" rx="1.80" fill="#F9F5EF" opacity="0.947"/>
  <rect x="581.15" y="280.49" width="77.70" height="3.60" rx="1.80" fill="#F9F5EF"/>
  <rect x="577.35" y="286.96" width="85.30" height="3.60" rx="1.80" fill="#F9F5EF"/>
  <rect x="577.35" y="293.44" width="85.30" height="3.60" rx="1.80" fill="#F9F5EF"/>
  <rect x="581.15" y="299.91" width="77.70" height="3.60" rx="1.80" fill="#F9F5EF"/>
  <rect x="624.20" y="243.59" width="77.70" height="3.60" rx="1.80" fill="#00D7CA"/>
  <rect x="620.40" y="250.06" width="85.30" height="3.60" rx="1.80" fill="#00D7CA"/>
  <rect x="620.40" y="256.54" width="85.30" height="3.60" rx="1.80" fill="#00D7CA"/>
  <rect x="624.20" y="263.01" width="77.70" height="3.60" rx="1.80" fill="#00D7CA"/>
  <rect x="600.06" y="295.85" width="4.58" height="3.60" rx="1.80" fill="#F9F5EF" opacity="0.162"/>
  <rect x="537.41" y="318.09" width="10.37" height="3.60" rx="1.80" fill="#F9F5EF" opacity="0.130"/>
  <rect x="603.82" y="318.45" width="9.06" height="3.60" rx="1.80" fill="#F9F5EF" opacity="0.372"/>
  <rect x="609.48" y="322.85" width="11.86" height="3.60" rx="1.80" fill="#F9F5EF" opacity="0.431"/>
  <rect x="510.62" y="294.86" width="6.58" height="3.60" rx="1.80" fill="#F9F5EF" opacity="0.270"/>
  <rect x="508.50" y="289.45" width="10.43" height="3.60" rx="1.80" fill="#F9F5EF" opacity="0.248"/>
  <rect x="551.91" y="313.15" width="12.10" height="3.60" rx="1.80" fill="#F9F5EF" opacity="0.381"/>
  <rect x="579.83" y="304.56" width="6.58" height="3.60" rx="1.80" fill="#F9F5EF" opacity="0.156"/>
  <rect x="520.58" y="340.83" width="6.26" height="3.60" rx="1.80" fill="#F9F5EF" opacity="0.176"/>
  <rect x="573.85" y="304.94" width="3.65" height="3.60" rx="1.80" fill="#F9F5EF" opacity="0.374"/>
  <rect x="604.72" y="318.08" width="10.98" height="3.60" rx="1.80" fill="#F9F5EF" opacity="0.362"/>
  <rect x="604.56" y="291.25" width="8.20" height="3.60" rx="1.80" fill="#F9F5EF" opacity="0.360"/>
  <rect x="601.48" y="343.78" width="11.08" height="3.60" rx="1.80" fill="#F9F5EF" opacity="0.338"/>
  <rect x="609.25" y="344.22" width="8.37" height="3.60" rx="1.80" fill="#F9F5EF" opacity="0.427"/>
  <rect x="506.96" y="316.10" width="6.31" height="3.60" rx="1.80" fill="#F9F5EF" opacity="0.390"/>
  <rect x="565.01" y="331.01" width="12.38" height="3.60" rx="1.80" fill="#F9F5EF" opacity="0.323"/>
  <rect x="594.23" y="310.74" width="9.25" height="3.60" rx="1.80" fill="#F9F5EF" opacity="0.395"/>
  <rect x="565.25" y="303.42" width="5.46" height="3.60" rx="1.80" fill="#F9F5EF" opacity="0.104"/>
  <rect x="508.92" y="342.72" width="11.04" height="3.60" rx="1.80" fill="#F9F5EF" opacity="0.352"/>
  <rect x="507.89" y="322.51" width="8.81" height="3.60" rx="1.80" fill="#F9F5EF" opacity="0.387"/>
  <rect x="612.56" y="301.28" width="12.47" height="3.60" rx="1.80" fill="#F9F5EF" opacity="0.360"/>
  <rect x="592.28" y="322.85" width="11.01" height="3.60" rx="1.80" fill="#F9F5EF" opacity="0.156"/>
  <rect x="612.49" y="315.54" width="8.55" height="3.60" rx="1.80" fill="#F9F5EF" opacity="0.164"/>
  <rect x="548.64" y="297.08" width="10.85" height="3.60" rx="1.80" fill="#F9F5EF" opacity="0.445"/>
  <rect x="584.92" y="324.97" width="12.51" height="3.60" rx="1.80" fill="#F9F5EF" opacity="0.344"/>
  <rect x="584.97" y="343.46" width="7.82" height="3.60" rx="1.80" fill="#F9F5EF" opacity="0.192"/>
  <rect x="568.70" y="333.52" width="11.23" height="3.60" rx="1.80" fill="#F9F5EF" opacity="0.176"/>
  <rect x="565.59" y="313.71" width="8.16" height="3.60" rx="1.80" fill="#F9F5EF" opacity="0.172"/>
  <rect x="533.11" y="311.30" width="7.71" height="3.60" rx="1.80" fill="#F9F5EF" opacity="0.168"/>
  <rect x="506.69" y="294.75" width="3.47" height="3.60" rx="1.80" fill="#F9F5EF" opacity="0.143"/>
  <rect x="599.91" y="345.17" width="3.80" height="3.60" rx="1.80" fill="#F9F5EF" opacity="0.170"/>
  <rect x="549.59" y="315.04" width="10.09" height="3.60" rx="1.80" fill="#F9F5EF" opacity="0.247"/>
  <rect x="544.78" y="333.26" width="9.89" height="3.60" rx="1.80" fill="#F9F5EF" opacity="0.420"/>
  <rect x="562.93" y="333.68" width="7.10" height="3.60" rx="1.80" fill="#F9F5EF" opacity="0.325"/>
  <rect width="1584" height="396" filter="url(#grain)" opacity="0.03"/>
</svg>
