<svg xmlns="http://www.w3.org/2000/svg" width="1584" height="396" viewBox="0 0 1584 396">
  <defs>
    <filter id="grain" x="0" y="0" width="100%" height="100%">
      <feTurbulence type="fractalNoise" baseFrequency="0.95" numOctaves="2" seed="17" stitchTiles="stitch"/>
      <feColorMatrix type="matrix" values="0 0 0 0 0.5  0 0 0 0 0.5  0 0 0 0 0.5  0 0 0 1 0"/>
    </filter>
    <radialGradient id="bloom" cx="1346.6" cy="216.2" r="325.5" gradientUnits="userSpaceOnUse">
      <stop offset="0" stop-color="#00D7CA" stop-opacity=".085"/>
      <stop offset="1" stop-color="#00D7CA" stop-opacity="0"/>
    </radialGradient>
  </defs>
  <rect width="1584" height="396" fill="#0C0C0B"/>
  <rect width="1584" height="396" fill="url(#bloom)"/>
  <rect x="1214.63" y="319.07" width="23.15" height="3.60" rx="1.80" fill="#F9F5EF" opacity="0.948"/>
  <rect x="1240.19" y="319.07" width="24.33" height="3.60" rx="1.80" fill="#F9F5EF"/>
  <rect x="1158.66" y="325.54" width="21.45" height="3.60" rx="1.80" fill="#F9F5EF" opacity="0.794"/>
  <rect x="1187.55" y="325.54" width="23.19" height="3.60" rx="1.80" fill="#F9F5EF" opacity="0.865"/>
  <rect x="1214.32" y="325.54" width="24.93" height="3.60" rx="1.80" fill="#F9F5EF" opacity="0.937"/>
  <rect x="1242.34" y="325.54" width="26.48" height="3.60" rx="1.80" fill="#F9F5EF"/>
  <rect x="1186.21" y="332.01" width="23.36" height="3.60" rx="1.80" fill="#F9F5EF" opacity="0.851"/>
  <rect x="1214.59" y="332.01" width="25.17" height="3.60" rx="1.80" fill="#F9F5EF" opacity="0.923"/>
  <rect x="1242.97" y="332.01" width="26.99" height="3.60" rx="1.80" fill="#F9F5EF" opacity="0.996"/>
  <rect x="1158.71" y="338.49" width="20.77" height="3.60" rx="1.80" fill="#F9F5EF" opacity="0.766"/>
  <rect x="1214.70" y="338.49" width="24.25" height="3.60" rx="1.80" fill="#F9F5EF" opacity="0.909"/>
  <rect x="1242.66" y="338.49" width="25.99" height="3.60" rx="1.80" fill="#F9F5EF" opacity="0.980"/>
  <rect x="1189.68" y="344.96" width="20.41" height="3.60" rx="1.80" fill="#F9F5EF" opacity="0.826"/>
  <rect x="1215.40" y="344.96" width="21.90" height="3.60" rx="1.80" fill="#F9F5EF" opacity="0.892"/>
  <rect x="1240.74" y="344.96" width="23.38" height="3.60" rx="1.80" fill="#F9F5EF" opacity="0.958"/>
  <rect x="1219.39" y="269.25" width="105.23" height="3.60" rx="1.80" fill="#F9F5EF"/>
  <rect x="1215.09" y="275.73" width="113.82" height="3.60" rx="1.80" fill="#F9F5EF"/>
  <rect x="1213.88" y="282.20" width="116.23" height="3.60" rx="1.80" fill="#F9F5EF"/>
  <rect x="1215.09" y="288.67" width="113.82" height="3.60" rx="1.80" fill="#F9F5EF"/>
  <rect x="1219.39" y="295.15" width="105.23" height="3.60" rx="1.80" fill="#F9F5EF"/>
  <rect x="1277.50" y="219.44" width="105.23" height="3.60" rx="1.80" fill="#00D7CA"/>
  <rect x="1273.21" y="225.91" width="113.82" height="3.60" rx="1.80" fill="#00D7CA"/>
  <rect x="1272.00" y="232.38" width="116.23" height="3.60" rx="1.80" fill="#00D7CA"/>
  <rect x="1273.21" y="238.86" width="113.82" height="3.60" rx="1.80" fill="#00D7CA"/>
  <rect x="1277.50" y="245.33" width="105.23" height="3.60" rx="1.80" fill="#00D7CA"/>
  <rect x="1251.34" y="342.74" width="3.61" height="3.60" rx="1.80" fill="#F9F5EF" opacity="0.170"/>
  <rect x="1170.02" y="308.91" width="3.43" height="3.60" rx="1.80" fill="#F9F5EF" opacity="0.135"/>
  <rect x="1229.27" y="304.17" width="7.23" height="3.60" rx="1.80" fill="#F9F5EF" opacity="0.287"/>
  <rect x="1254.95" y="332.28" width="9.68" height="3.60" rx="1.80" fill="#F9F5EF" opacity="0.232"/>
  <rect x="1169.93" y="284.82" width="4.49" height="3.60" rx="1.80" fill="#F9F5EF" opacity="0.465"/>
  <rect x="1165.04" y="289.16" width="9.16" height="3.60" rx="1.80" fill="#F9F5EF" opacity="0.235"/>
  <rect x="1124.86" y="330.68" width="11.86" height="3.60" rx="1.80" fill="#F9F5EF" opacity="0.319"/>
  <rect x="1237.71" y="328.24" width="11.85" height="3.60" rx="1.80" fill="#F9F5EF" opacity="0.147"/>
  <rect x="1194.95" y="327.73" width="11.58" height="3.60" rx="1.80" fill="#F9F5EF" opacity="0.484"/>
  <rect x="1239.35" y="323.11" width="12.26" height="3.60" rx="1.80" fill="#F9F5EF" opacity="0.487"/>
  <rect x="1197.64" y="341.97" width="3.29" height="3.60" rx="1.80" fill="#F9F5EF" opacity="0.306"/>
  <rect x="1165.85" y="334.05" width="8.38" height="3.60" rx="1.80" fill="#F9F5EF" opacity="0.402"/>
  <rect x="1259.38" y="320.03" width="10.94" height="3.60" rx="1.80" fill="#F9F5EF" opacity="0.272"/>
  <rect x="1211.15" y="335.25" width="8.40" height="3.60" rx="1.80" fill="#F9F5EF" opacity="0.225"/>
  <rect x="1152.71" y="273.93" width="3.47" height="3.60" rx="1.80" fill="#F9F5EF" opacity="0.477"/>
  <rect x="1238.68" y="326.17" width="3.37" height="3.60" rx="1.80" fill="#F9F5EF" opacity="0.348"/>
  <rect x="1204.31" y="333.42" width="12.55" height="3.60" rx="1.80" fill="#F9F5EF" opacity="0.211"/>
  <rect x="1260.72" y="327.80" width="10.77" height="3.60" rx="1.80" fill="#F9F5EF" opacity="0.350"/>
  <rect x="1238.22" y="284.84" width="12.55" height="3.60" rx="1.80" fill="#F9F5EF" opacity="0.303"/>
  <rect x="1200.28" y="286.68" width="6.95" height="3.60" rx="1.80" fill="#F9F5EF" opacity="0.184"/>
  <rect x="1235.83" y="345.59" width="10.13" height="3.60" rx="1.80" fill="#F9F5EF" opacity="0.363"/>
  <rect x="1261.29" y="324.38" width="10.13" height="3.60" rx="1.80" fill="#F9F5EF" opacity="0.482"/>
  <rect x="1189.08" y="292.47" width="8.71" height="3.60" rx="1.80" fill="#F9F5EF" opacity="0.418"/>
  <rect x="1241.65" y="289.12" width="8.43" height="3.60" rx="1.80" fill="#F9F5EF" opacity="0.291"/>
  <rect x="1194.33" y="288.30" width="5.59" height="3.60" rx="1.80" fill="#F9F5EF" opacity="0.276"/>
  <rect x="1187.39" y="287.52" width="3.27" height="3.60" rx="1.80" fill="#F9F5EF" opacity="0.169"/>
  <rect x="1122.04" y="282.17" width="11.44" height="3.60" rx="1.80" fill="#F9F5EF" opacity="0.493"/>
  <rect x="1127.23" y="287.82" width="7.03" height="3.60" rx="1.80" fill="#F9F5EF" opacity="0.300"/>
  <rect x="1224.12" y="304.11" width="6.61" height="3.60" rx="1.80" fill="#F9F5EF" opacity="0.417"/>
  <rect x="1221.01" y="340.42" width="8.20" height="3.60" rx="1.80" fill="#F9F5EF" opacity="0.419"/>
  <rect x="1177.98" y="320.46" width="5.98" height="3.60" rx="1.80" fill="#F9F5EF" opacity="0.311"/>
  <rect x="1230.49" y="279.88" width="5.60" height="3.60" rx="1.80" fill="#F9F5EF" opacity="0.431"/>
  <rect x="1237.82" y="338.28" width="7.26" height="3.60" rx="1.80" fill="#F9F5EF" opacity="0.243"/>
  <rect x="1251.22" y="294.28" width="6.62" height="3.60" rx="1.80" fill="#F9F5EF" opacity="0.291"/>
  <rect width="1584" height="396" filter="url(#grain)" opacity="0.03"/>
</svg>
