<svg xmlns="http://www.w3.org/2000/svg" width="4200" height="700" viewBox="0 0 4200 700">
  <defs>
    <filter id="grain" x="0" y="0" width="100%" height="100%">
      <feTurbulence type="fractalNoise" baseFrequency="0.95" numOctaves="2" seed="17" stitchTiles="stitch"/>
      <feColorMatrix type="matrix" values="0 0 0 0 0.5  0 0 0 0 0.5  0 0 0 0 0.5  0 0 0 1 0"/>
    </filter>
    <radialGradient id="bloom" cx="3188.7" cy="164.5" r="823.2" gradientUnits="userSpaceOnUse">
      <stop offset="0" stop-color="#00D7CA" stop-opacity=".085"/>
      <stop offset="1" stop-color="#00D7CA" stop-opacity="0"/>
    </radialGradient>
  </defs>
  <rect width="4200" height="700" fill="#0C0C0B"/>
  <rect width="4200" height="700" fill="url(#bloom)"/>
  <rect x="2712.91" y="431.19" width="280.18" height="13.40" rx="6.70" fill="#F9F5EF"/>
  <rect x="2706.00" y="455.30" width="294.00" height="13.40" rx="6.70" fill="#F9F5EF"/>
  <rect x="2712.91" y="479.41" width="280.18" height="13.40" rx="6.70" fill="#F9F5EF"/>
  <rect x="2859.91" y="305.19" width="280.18" height="13.40" rx="6.70" fill="#F9F5EF"/>
  <rect x="2853.00" y="329.30" width="294.00" height="13.40" rx="6.70" fill="#F9F5EF"/>
  <rect x="2859.91" y="353.41" width="280.18" height="13.40" rx="6.70" fill="#F9F5EF"/>
  <rect x="3006.91" y="179.19" width="280.18" height="13.40" rx="6.70" fill="#00D7CA"/>
  <rect x="3000.00" y="203.30" width="294.00" height="13.40" rx="6.70" fill="#00D7CA"/>
  <rect x="3006.91" y="227.41" width="280.18" height="13.40" rx="6.70" fill="#00D7CA"/>
  <rect width="4200" height="700" filter="url(#grain)" opacity="0.03"/>
</svg>
