<?xml version="1.0" encoding="UTF-8" standalone="no"?><!DOCTYPE svg PUBLIC "-//W3C//DTD SVG 1.1//EN" "http://www.w3.org/Graphics/SVG/1.1/DTD/svg11.dtd"><svg width="100%" height="100%" viewBox="0 0 4167 3334" version="1.1" xmlns="http://www.w3.org/2000/svg" xmlns:xlink="http://www.w3.org/1999/xlink" xml:space="preserve" xmlns:serif="http://www.serif.com/" style="fill-rule:evenodd;clip-rule:evenodd;stroke-linecap:round;stroke-linejoin:round;stroke-miterlimit:1.5;"><g><path d="M702.461,2306.28l143.813,-0c48.529,-0 84.926,11.824 109.191,35.472c24.265,23.649 36.397,58.315 36.397,103.999l0,55.627c0,45.684 -12.132,80.351 -36.397,103.999c-24.265,23.648 -60.662,35.472 -109.191,35.472l-46.163,0l0,229.765l-97.65,-0l-0,-564.334Zm143.813,253.95c15.979,0 27.963,-4.031 35.953,-12.093c7.99,-8.062 11.984,-21.767 11.984,-41.115l0,-66.914c0,-19.349 -3.994,-33.054 -11.984,-41.116c-7.99,-8.062 -19.974,-12.093 -35.953,-12.093l-46.163,0l0,173.331l46.163,0Z" style="fill:#535353;fill-rule:nonzero;"/><path d="M1045.13,2306.28l144.701,-0c50.305,-0 86.998,10.615 110.08,31.844c23.081,21.23 34.621,53.881 34.621,97.953l0,34.666c0,58.583 -21.305,95.668 -63.917,111.254l0,1.613c23.673,6.449 40.392,19.617 50.157,39.503c9.765,19.886 14.648,46.49 14.648,79.813l0,99.162c0,16.123 0.592,29.157 1.776,39.1c1.183,9.943 4.142,19.751 8.877,29.426l-99.427,-0c-3.55,-9.137 -5.918,-17.736 -7.101,-25.798c-1.184,-8.062 -1.776,-22.574 -1.776,-43.535l0,-103.192c0,-25.798 -4.587,-43.803 -13.76,-54.015c-9.173,-10.212 -25.004,-15.318 -47.494,-15.318l-33.734,0l0,241.858l-97.651,-0l0,-564.334Zm133.161,241.857c19.53,0 34.178,-4.568 43.943,-13.705c9.765,-9.137 14.647,-24.454 14.647,-45.953l0,-43.534c0,-20.424 -3.994,-35.204 -11.984,-44.341c-7.99,-9.137 -20.566,-13.705 -37.729,-13.705l-44.387,0l0,161.238l35.51,0Z" style="fill:#535353;fill-rule:nonzero;"/><path d="M1544.03,2878.68c-47.938,-0 -84.631,-12.362 -110.079,-37.085c-25.449,-24.723 -38.173,-59.658 -38.173,-104.805l0,-296.678c0,-45.147 12.724,-80.082 38.173,-104.805c25.448,-24.723 62.141,-37.085 110.079,-37.085c47.938,0 84.631,12.362 110.079,37.085c25.449,24.723 38.173,59.658 38.173,104.805l-0,296.678c-0,45.147 -12.724,80.082 -38.173,104.805c-25.448,24.723 -62.141,37.085 -110.079,37.085Zm-0,-80.619c33.734,-0 50.601,-18.543 50.601,-55.628l-0,-307.965c-0,-37.084 -16.867,-55.627 -50.601,-55.627c-33.734,0 -50.601,18.543 -50.601,55.627l-0,307.965c-0,37.085 16.867,55.628 50.601,55.628Z" style="fill:#535353;fill-rule:nonzero;"/><path d="M1730.46,2306.28l98.539,-0l63.917,437.762l1.776,-0l63.916,-437.762l89.662,-0l-94.1,564.334l-129.61,-0l-94.1,-564.334Z" style="fill:#535353;fill-rule:nonzero;"/><rect x="2095.32" y="2306.28" width="97.651" height="564.334" style="fill:#535353;fill-rule:nonzero;"/><path d="M2265.76,2306.28l122.508,-0l94.987,337.794l1.776,0l-0,-337.794l86.998,-0l-0,564.334l-100.314,-0l-117.181,-411.964l-1.776,0l0,411.964l-86.998,-0l0,-564.334Z" style="fill:#535353;fill-rule:nonzero;"/><path d="M2782.43,2878.68c-46.754,-0 -82.411,-12.093 -106.972,-36.279c-24.561,-24.186 -36.841,-58.314 -36.841,-102.386l-0,-303.128c-0,-44.072 12.28,-78.201 36.841,-102.386c24.561,-24.186 60.218,-36.279 106.972,-36.279c46.754,0 82.412,12.093 106.972,36.279c24.561,24.185 36.841,58.314 36.841,102.386l0,59.658l-92.324,0l-0,-65.301c-0,-34.935 -16.275,-52.403 -48.826,-52.403c-32.55,0 -48.825,17.468 -48.825,52.403l-0,315.22c-0,34.398 16.275,51.597 48.825,51.597c32.551,-0 48.826,-17.199 48.826,-51.597l-0,-86.262l92.324,-0l0,79.813c0,44.072 -12.28,78.2 -36.841,102.386c-24.56,24.186 -60.218,36.279 -106.972,36.279Z" style="fill:#535353;fill-rule:nonzero;"/><rect x="2984.83" y="2306.28" width="97.651" height="564.334" style="fill:#535353;fill-rule:nonzero;"/><path d="M3230.73,2306.28l132.272,-0l101.202,564.334l-97.651,-0l-17.754,-112.061l-0,1.613l-110.967,-0l-17.755,110.448l-90.549,-0l101.202,-564.334Zm106.528,377.297l-43.499,-278.942l-1.776,0l-42.611,278.942l87.886,0Z" style="fill:#535353;fill-rule:nonzero;"/></g><g><g id="hojas-der" serif:id="hojas der"><path d="M2707.63,1906.97c0.578,6.389 -1.694,12.706 -6.208,17.264c-4.514,4.558 -10.809,6.89 -17.203,6.374c-75.736,-6.72 -298.952,-33.629 -389.012,-122.383c-80.25,-79.087 -79.671,-209.035 -0,-288.706c79.67,-79.67 209.627,-80.258 288.705,0c87.455,88.76 116.284,311.77 123.718,387.451Z" style="fill:#43a84b;"/><path d="M2604.5,515.987c6.389,-0.578 12.706,1.694 17.264,6.208c4.558,4.514 6.89,10.81 6.374,17.203c-6.72,75.736 -33.629,298.952 -122.383,389.012c-79.087,80.25 -209.035,79.671 -288.706,0c-79.67,-79.67 -80.258,-209.627 0,-288.705c88.76,-87.454 311.77,-116.284 387.451,-123.718Z" style="fill:#43a84b;"/><path d="M2361.07,179.253c5.806,-2.989 12.647,-3.211 18.635,-0.605c5.987,2.606 10.487,7.765 12.256,14.05c14.534,52.719 42.902,175.439 13.765,242.871c-27.76,64.244 -103.138,93.114 -167.178,64.886c-64.04,-28.228 -93.588,-103.349 -64.886,-167.178c29.689,-66.024 138.912,-128.746 187.408,-154.024Z" style="fill:#3ea584;"/><path d="M2959.75,1647.34c2.011,6.213 1.123,13 -2.417,18.487c-3.54,5.487 -9.359,9.093 -15.848,9.822c-54.375,5.816 -180.068,13.96 -241.898,-25.701c-58.908,-37.786 -75.206,-116.842 -36.99,-175.472c38.215,-58.631 117.126,-75.639 175.472,-36.99c60.352,39.977 104.581,157.907 121.681,209.854Z" style="fill:#3ea584;"/><path d="M2982.85,736.897c6.208,2.023 11.179,6.729 13.54,12.817c2.36,6.088 1.861,12.914 -1.361,18.594c-27.235,47.421 -94.482,153.924 -162.9,180.662c-65.184,25.475 -138.735,-7.777 -163.733,-73.145c-24.998,-65.368 7.593,-139.22 73.145,-163.733c67.807,-25.357 189.225,8.128 241.309,24.805Z" style="fill:#3ea584;"/><path d="M2965.21,1174.87c4.926,4.109 7.787,10.183 7.818,16.597c0.031,6.415 -2.771,12.516 -7.657,16.673c-58.306,48.8 -235.171,187.61 -361.612,188.534c-112.668,0.822 -204.146,-91.475 -204.146,-204.146c0,-112.671 91.478,-204.98 204.146,-204.146c124.602,0.924 302.679,138.23 361.451,186.488Z" style="fill:#43a84b;stroke:#43a84b;stroke-width:4.17px;"/></g><g id="hojas-der1" serif:id="hojas der"><path d="M1459.04,1906.97c-0.577,6.389 1.695,12.706 6.209,17.264c4.514,4.558 10.809,6.89 17.203,6.374c75.735,-6.72 298.952,-33.629 389.012,-122.383c80.25,-79.087 79.67,-209.035 -0,-288.706c-79.671,-79.67 -209.628,-80.258 -288.706,0c-87.454,88.76 -116.283,311.77 -123.718,387.451Z" style="fill:#43a84b;"/><path d="M1562.16,515.987c-6.389,-0.578 -12.707,1.694 -17.264,6.208c-4.558,4.514 -6.891,10.81 -6.375,17.203c6.721,75.736 33.63,298.952 122.384,389.012c79.087,80.25 209.035,79.671 288.706,0c79.67,-79.67 80.258,-209.627 -0,-288.705c-88.76,-87.454 -311.77,-116.284 -387.451,-123.718Z" style="fill:#43a84b;"/><path d="M1805.6,179.253c-5.805,-2.989 -12.647,-3.211 -18.634,-0.605c-5.987,2.606 -10.487,7.765 -12.256,14.05c-14.535,52.719 -42.903,175.439 -13.766,242.871c27.76,64.244 103.139,93.114 167.179,64.886c64.04,-28.228 93.588,-103.349 64.886,-167.178c-29.689,-66.024 -138.912,-128.746 -187.409,-154.024Z" style="fill:#3ea584;"/><path d="M1206.92,1647.34c-2.01,6.213 -1.122,13 2.418,18.487c3.54,5.487 9.358,9.093 15.847,9.822c54.376,5.816 180.069,13.96 241.899,-25.701c58.908,-37.786 75.205,-116.842 36.99,-175.472c-38.215,-58.631 -117.126,-75.639 -175.472,-36.99c-60.353,39.977 -104.581,157.907 -121.682,209.854Z" style="fill:#3ea584;"/><path d="M1183.82,736.897c-6.208,2.023 -11.179,6.729 -13.539,12.817c-2.361,6.088 -1.861,12.914 1.361,18.594c27.235,47.421 94.482,153.924 162.899,180.662c65.184,25.475 138.735,-7.777 163.734,-73.145c24.998,-65.368 -7.594,-139.22 -73.146,-163.733c-67.806,-25.357 -189.224,8.128 -241.309,24.805Z" style="fill:#3ea584;"/><path d="M1201.46,1174.87c-4.926,4.109 -7.787,10.183 -7.819,16.597c-0.031,6.415 2.771,12.516 7.658,16.673c58.305,48.8 235.171,187.61 361.612,188.534c112.668,0.822 204.146,-91.475 204.146,-204.146c-0,-112.671 -91.478,-204.98 -204.146,-204.146c-124.602,0.924 -302.68,138.23 -361.451,186.488Z" style="fill:#43a84b;stroke:#43a84b;stroke-width:4.17px;"/></g><path id="palo" d="M1997.53,2153.01l-1.584,-915.717l-96.642,-110.9l77.63,-162.499l192.078,194.185l-0,188.53l127.851,-77.63l85.648,128.327l-213.499,128.327l-0,628.961l-171.482,-1.584Z" style="fill:#535353;"/></g><g><path d="M723.35,2999.23l31.925,0c26.605,0 40.203,22.651 40.203,50.404c-0,27.957 -13.598,49.995 -40.203,49.995l-31.925,0l-0,-100.399Zm31.925,120.398c38.626,-0 61.092,-29.998 61.092,-69.994c0,-39.996 -22.466,-70.606 -61.092,-70.606l-52.814,0l-0,140.6l52.814,-0Z" style="fill:#535353;fill-rule:nonzero;"/><path d="M927.121,3071.67c-0,-30.202 -20.101,-49.383 -46.115,-49.383c-26.013,-0 -47.297,19.181 -47.297,49.383c0,30.201 21.284,49.995 47.297,49.995c17.145,0 34.685,-7.55 42.568,-24.487l-16.554,-7.551c-4.73,8.775 -14.781,13.672 -25.028,13.672c-14.978,0 -26.014,-9.182 -28.181,-23.875l73.113,0c0.197,-2.245 0.197,-5.51 0.197,-7.754Zm-73.31,-7.551c2.167,-14.692 13.006,-23.467 27.195,-23.467c13.992,0 24.043,8.571 26.211,23.467l-53.406,0Z" style="fill:#535353;fill-rule:nonzero;"/><rect x="948.602" y="2972.49" width="20.298" height="147.129" style="fill:#535353;fill-rule:nonzero;"/><path d="M1137.39,3119.62l22.072,-0l-51.238,-140.6l-22.663,0l-51.239,140.6l22.269,-0l13.007,-35.099l54.785,-0l13.007,35.099Zm-40.399,-113.459l20.298,58.974l-40.597,-0l20.299,-58.974Z" style="fill:#535353;fill-rule:nonzero;"/><path d="M1245,3072.08c-0,18.774 -14.584,29.385 -28.379,29.385c-15.371,-0 -27.984,-11.428 -27.984,-29.385c0,-17.345 12.613,-29.385 27.984,-29.385c15.175,-0 28.379,10.407 28.379,29.385Zm-56.166,59.586c-3.744,1.633 -13.006,7.142 -16.751,8.775c8.672,17.141 24.634,26.732 42.568,26.732c30.94,0 50.647,-17.753 50.647,-61.627l-0,-81.217l-19.904,0l-0,14.081c-5.715,-10.408 -18.525,-16.121 -31.137,-16.121c-24.831,-0 -46.509,19.794 -46.509,49.995c-0,30.201 21.678,49.383 46.509,49.383c12.415,0 26.013,-5.714 31.137,-16.529l-0,4.898c-0,26.732 -12.022,37.547 -30.743,37.547c-10.051,0 -20.89,-5.918 -25.817,-15.917Z" style="fill:#535353;fill-rule:nonzero;"/><path d="M1355.75,3075.55c0,18.978 -11.824,25.712 -23.648,25.712c-11.036,-0 -19.116,-8.163 -19.116,-23.875l-0,-53.057l-20.298,0l-0,55.505c-0.197,27.141 13.006,41.833 35.669,41.833c9.657,0 22.072,-5.101 27.393,-15.917l0,13.877l20.298,-0l0,-95.298l-20.298,0l0,51.22Z" style="fill:#535353;fill-rule:nonzero;"/><path d="M1476.16,3119.62l20.101,-0l0,-95.298l-20.101,0l0,13.468c-6.306,-10.815 -19.904,-15.508 -30.94,-15.508c-24.634,-0 -46.706,19.181 -46.706,49.587c0,30.405 22.072,49.791 46.706,49.791c11.824,0 24.634,-5.305 30.94,-15.713l0,13.673Zm-56.756,-47.955c-0,-17.55 13.007,-28.977 28.181,-28.977c13.795,-0 28.378,10.407 28.378,28.977c0,18.774 -13.401,29.589 -28.378,29.589c-15.174,-0 -28.181,-12.04 -28.181,-29.589Z" style="fill:#535353;fill-rule:nonzero;"/><path d="M1526.41,3145.74c9.065,-7.143 19.707,-24.692 21.284,-51.832l-21.284,-0c0.591,19.59 -5.912,35.507 -13.795,46.934l13.795,4.898Z" style="fill:#535353;fill-rule:nonzero;"/><path d="M1718.95,3016.16c0,-23.059 -14.583,-37.14 -37.64,-37.14l-52.027,0l-0,140.6l56.165,-0c25.816,-0 40.794,-18.978 40.794,-41.221c-0,-13.468 -9.066,-29.793 -24.831,-33.671c13.203,-5.509 17.539,-17.549 17.539,-28.568Zm-68.58,20.61l-0,-37.956l28.772,0c11.233,0 18.13,6.734 18.13,18.162c0,10.611 -5.715,19.794 -16.751,19.794l-30.151,0Zm33.501,18.57c13.007,-0 20.496,12.448 20.496,22.855c-0,10.815 -7.292,21.63 -19.904,21.63l-34.093,0l-0,-44.485l33.501,-0Z" style="fill:#535353;fill-rule:nonzero;"/><path d="M1791.67,3101.26c-15.174,-0 -27.787,-11.632 -27.787,-29.589c0,-17.346 12.613,-28.773 27.787,-28.773c15.372,-0 27.984,11.427 27.984,28.773c0,17.957 -12.612,29.589 -27.984,29.589Zm0,20.406c26.21,0 48.282,-19.794 48.282,-49.995c0,-30.202 -22.072,-49.383 -48.282,-49.383c-26.013,-0 -47.888,19.181 -47.888,49.383c-0,30.201 21.875,49.995 47.888,49.995Z" style="fill:#535353;fill-rule:nonzero;"/><path d="M1896.31,3081.46c6.898,1.632 12.81,4.897 12.81,11.223c0,7.142 -7.095,11.428 -16.357,11.428c-10.839,-0 -17.145,-5.51 -18.13,-13.672l-18.722,-0c0.591,20.202 17.933,31.221 35.276,31.221c21.086,0 36.655,-10.407 36.655,-28.773c-0,-9.387 -4.336,-22.855 -24.043,-27.752l-14.189,-3.673c-4.927,-1.429 -9.853,-3.469 -11.233,-7.347c-0.985,-3.061 -0.788,-5.917 0.788,-8.57c2.168,-3.265 7.686,-5.306 13.007,-5.306c6.306,0 12.612,3.061 13.401,10.203l19.313,0c-0.986,-20.406 -17.343,-28.16 -33.502,-28.16c-16.751,-0 -31.926,11.019 -32.911,25.099c-1.38,15.509 5.715,25.508 25.422,31.018l12.415,3.061Z" style="fill:#535353;fill-rule:nonzero;"/><path d="M2020.47,3072.49c-0,18.978 -14.386,28.977 -27.984,28.977c-15.372,-0 -27.393,-11.428 -27.393,-28.977c0,-17.753 12.021,-29.793 27.393,-29.793c14.977,-0 27.984,11.223 27.984,29.793Zm0.197,-34.078c-5.518,-10.408 -18.131,-16.121 -30.743,-16.121c-24.831,-0 -45.72,19.794 -45.72,49.791c-0,30.405 20.889,49.587 45.72,49.587c12.612,0 25.225,-5.101 30.743,-15.713l-0,59.995l20.298,-0l0,-141.62l-20.298,0l-0,14.081Z" style="fill:#535353;fill-rule:nonzero;"/><path d="M2131.42,3075.55c-0,18.978 -11.825,25.712 -23.649,25.712c-11.036,-0 -19.116,-8.163 -19.116,-23.875l0,-53.057l-20.298,0l-0,55.505c-0.197,27.141 13.007,41.833 35.67,41.833c9.656,0 22.072,-5.101 27.393,-15.917l-0,13.877l20.298,-0l-0,-95.298l-20.298,0l-0,51.22Z" style="fill:#535353;fill-rule:nonzero;"/><path d="M2267.59,3071.67c0,-30.202 -20.101,-49.383 -46.114,-49.383c-26.014,-0 -47.297,19.181 -47.297,49.383c-0,30.201 21.283,49.995 47.297,49.995c17.145,0 34.684,-7.55 42.567,-24.487l-16.554,-7.551c-4.73,8.775 -14.78,13.672 -25.028,13.672c-14.977,0 -26.013,-9.182 -28.181,-23.875l73.113,0c0.197,-2.245 0.197,-5.51 0.197,-7.754Zm-73.31,-7.551c2.168,-14.692 13.007,-23.467 27.196,-23.467c13.992,0 24.042,8.571 26.21,23.467l-53.406,0Z" style="fill:#535353;fill-rule:nonzero;"/><path d="M2322.97,3081.46c6.897,1.632 12.81,4.897 12.81,11.223c-0,7.142 -7.095,11.428 -16.357,11.428c-10.839,-0 -17.145,-5.51 -18.131,-13.672l-18.721,-0c0.591,20.202 17.933,31.221 35.275,31.221c21.087,0 36.655,-10.407 36.655,-28.773c0,-9.387 -4.335,-22.855 -24.042,-27.752l-14.189,-3.673c-4.927,-1.429 -9.854,-3.469 -11.233,-7.347c-0.986,-3.061 -0.789,-5.917 0.788,-8.57c2.168,-3.265 7.686,-5.306 13.007,-5.306c6.306,0 12.612,3.061 13.4,10.203l19.313,0c-0.985,-20.406 -17.342,-28.16 -33.502,-28.16c-16.751,-0 -31.925,11.019 -32.911,25.099c-1.379,15.509 5.716,25.508 25.423,31.018l12.415,3.061Z" style="fill:#535353;fill-rule:nonzero;"/><path d="M2509.79,3024.33l-21.678,0l-25.816,65.3l-25.619,-65.3l-21.678,0l36.458,90.808l-19.904,51.016l21.283,-0l56.954,-141.824Z" style="fill:#535353;fill-rule:nonzero;"/><path d="M2575.22,3119.62l83.755,-0l0,-19.795l-62.865,0l-0,-39.384l53.209,0l-0,-19.794l-53.209,0l-0,-41.629l60.894,0l0,-19.998l-81.784,0l0,140.6Z" style="fill:#535353;fill-rule:nonzero;"/><rect x="2682.43" y="2972.49" width="20.298" height="147.129" style="fill:#535353;fill-rule:nonzero;"/><path d="M2772.49,2999.23l40.005,0l0,120.398l21.284,-0l-0,-120.398l40.005,0l0,-20.202l-101.294,0l-0,20.202Z" style="fill:#535353;fill-rule:nonzero;"/><path d="M2938.62,3075.55c0,18.978 -11.824,25.712 -23.648,25.712c-11.036,-0 -19.116,-8.163 -19.116,-23.875l-0,-53.057l-20.298,0l-0,55.505c-0.197,27.141 13.006,41.833 35.669,41.833c9.657,0 22.072,-5.101 27.393,-15.917l0,13.877l20.298,-0l0,-95.298l-20.298,0l0,51.22Z" style="fill:#535353;fill-rule:nonzero;"/><path d="M3007.59,3085.34c-0,-25.304 7.291,-43.261 24.634,-43.261c3.941,-0 8.277,0.612 13.598,3.265l3.35,-19.386c-2.956,-2.245 -9.854,-3.673 -16.357,-3.673c-11.627,-0 -20.495,6.734 -25.225,23.875l-0,-21.835l-20.298,0l-0,95.298l20.298,-0l-0,-34.283Z" style="fill:#535353;fill-rule:nonzero;"/><path d="M3086.03,3024.33l-20.101,0l-0,95.298l20.101,-0l-0,-95.298Zm-23.649,-38.568c0,7.551 6.307,13.264 13.598,13.264c7.686,0 13.401,-5.713 13.401,-13.264c0,-7.55 -5.715,-13.264 -13.401,-13.264c-7.291,0 -13.598,5.714 -13.598,13.264Z" style="fill:#535353;fill-rule:nonzero;"/><path d="M3148.3,3081.46c6.898,1.632 12.81,4.897 12.81,11.223c-0,7.142 -7.095,11.428 -16.357,11.428c-10.839,-0 -17.145,-5.51 -18.131,-13.672l-18.721,-0c0.591,20.202 17.933,31.221 35.275,31.221c21.087,0 36.655,-10.407 36.655,-28.773c0,-9.387 -4.335,-22.855 -24.042,-27.752l-14.189,-3.673c-4.927,-1.429 -9.854,-3.469 -11.233,-7.347c-0.986,-3.061 -0.789,-5.917 0.788,-8.57c2.168,-3.265 7.686,-5.306 13.007,-5.306c6.306,0 12.612,3.061 13.4,10.203l19.313,0c-0.985,-20.406 -17.342,-28.16 -33.502,-28.16c-16.751,-0 -31.925,11.019 -32.91,25.099c-1.38,15.509 5.715,25.508 25.422,31.018l12.415,3.061Z" style="fill:#535353;fill-rule:nonzero;"/><path d="M3306.75,3042.9c11.824,-0 19.51,8.775 19.51,23.671l-0,53.057l20.298,-0l0,-54.893c0,-27.141 -12.612,-42.445 -35.473,-42.445c-8.277,-0 -22.466,2.448 -30.94,18.977c-5.321,-12.243 -14.189,-18.977 -28.969,-18.977c-7.489,-0 -22.663,3.265 -28.969,16.325l-0,-14.285l-20.299,0l0,95.298l20.299,-0l-0,-51.22c-0,-18.774 11.43,-25.508 23.254,-25.508c11.036,-0 18.525,8.571 18.722,23.263l-0,53.465l20.298,-0l-0,-51.22c-0,-15.509 8.868,-25.508 22.269,-25.508Z" style="fill:#535353;fill-rule:nonzero;"/><path d="M3415.92,3101.26c-15.175,-0 -27.787,-11.632 -27.787,-29.589c-0,-17.346 12.612,-28.773 27.787,-28.773c15.371,-0 27.984,11.427 27.984,28.773c-0,17.957 -12.613,29.589 -27.984,29.589Zm-0,20.406c26.21,0 48.282,-19.794 48.282,-49.995c0,-30.202 -22.072,-49.383 -48.282,-49.383c-26.013,-0 -47.888,19.181 -47.888,49.383c-0,30.201 21.875,49.995 47.888,49.995Z" style="fill:#535353;fill-rule:nonzero;"/></g></svg>